<svg width="21" height="20" viewBox="0 0 21 20" fill="none" xmlns="http://www.w3.org/2000/svg">
<path d="M5.49996 9.16668V12.5M15.5 7.50001V10.8333M14.6666 3.33334C16.7072 3.33334 17.8109 3.64564 18.3601 3.88788C18.4332 3.92014 18.4698 3.93627 18.5753 4.03699C18.6386 4.09736 18.754 4.2745 18.7837 4.35675C18.8333 4.49396 18.8333 4.56896 18.8333 4.71896V13.676C18.8333 14.4333 18.8333 14.8119 18.7197 15.0066C18.6042 15.2045 18.4928 15.2966 18.2766 15.3727C18.064 15.4475 17.6349 15.365 16.7768 15.2001C16.1761 15.0847 15.4637 15 14.6666 15C12.1666 15 9.66663 16.6667 6.33329 16.6667C4.2927 16.6667 3.18901 16.3544 2.63986 16.1121C2.56673 16.0799 2.53016 16.0638 2.42463 15.963C2.36136 15.9027 2.24589 15.7255 2.21618 15.6433C2.16663 15.5061 2.16663 15.4311 2.16663 15.2811L2.16663 6.32405C2.16663 5.56675 2.16663 5.1881 2.28019 4.99346C2.39571 4.79548 2.50712 4.70344 2.72334 4.62735C2.93591 4.55255 3.36499 4.635 4.22315 4.79988C4.82381 4.91529 5.53619 5.00001 6.33329 5.00001C8.83329 5.00001 11.3333 3.33334 14.6666 3.33334ZM12.5833 10C12.5833 11.1506 11.6506 12.0833 10.5 12.0833C9.34937 12.0833 8.41663 11.1506 8.41663 10C8.41663 8.84942 9.34937 7.91668 10.5 7.91668C11.6506 7.91668 12.5833 8.84942 12.5833 10Z" stroke="#207E84" stroke-width="1.66667" stroke-linecap="round" stroke-linejoin="round"/>
</svg>
