<svg width="21" height="20" viewBox="0 0 21 20" fill="none" xmlns="http://www.w3.org/2000/svg">
<path d="M17.6666 8.33332H2.66663M17.6666 10.4167V7.33332C17.6666 5.93319 17.6666 5.23313 17.3941 4.69835C17.1545 4.22794 16.772 3.84549 16.3016 3.60581C15.7668 3.33332 15.0668 3.33332 13.6666 3.33332H6.66663C5.26649 3.33332 4.56643 3.33332 4.03165 3.60581C3.56124 3.84549 3.17879 4.22794 2.93911 4.69835C2.66663 5.23313 2.66663 5.93319 2.66663 7.33332V14.3333C2.66663 15.7335 2.66663 16.4335 2.93911 16.9683C3.17879 17.4387 3.56124 17.8212 4.03165 18.0608C4.56643 18.3333 5.26649 18.3333 6.66663 18.3333H10.1666M13.5 1.66666V4.99999M6.83329 1.66666V4.99999M12.25 15.8333L13.9166 17.5L17.6666 13.75" stroke="#207E84" stroke-width="1.66667" stroke-linecap="round" stroke-linejoin="round"/>
</svg>
