<svg width="21" height="20" viewBox="0 0 21 20" fill="none" xmlns="http://www.w3.org/2000/svg">
<path d="M5.33333 16.7393H7.50858C7.79219 16.7393 8.07407 16.773 8.34901 16.8405L10.6474 17.3991C11.1461 17.5206 11.6656 17.5324 12.1696 17.4345L14.7108 16.9401C15.3821 16.8093 15.9997 16.4879 16.4836 16.0171L18.2816 14.2681C18.795 13.7695 18.795 12.9604 18.2816 12.4609C17.8193 12.0112 17.0873 11.9606 16.5643 12.3419L14.4688 13.8707C14.1687 14.0901 13.8036 14.2082 13.428 14.2082H11.4046L12.6926 14.2081C13.4185 14.2081 14.0065 13.6361 14.0065 12.9299V12.6743C14.0065 12.0879 13.5963 11.5766 13.0117 11.4349L11.0238 10.9514C10.7003 10.873 10.369 10.8333 10.036 10.8333C9.23194 10.8333 7.77658 11.499 7.77658 11.499L5.33333 12.5207M2 12.1667L2 17C2 17.4667 2 17.7001 2.09083 17.8783C2.17072 18.0351 2.29821 18.1626 2.45501 18.2425C2.63327 18.3333 2.86662 18.3333 3.33333 18.3333H4C4.46671 18.3333 4.70007 18.3333 4.87833 18.2425C5.03513 18.1626 5.16261 18.0351 5.24251 17.8783C5.33333 17.7001 5.33333 17.4667 5.33333 17V12.1667C5.33333 11.7 5.33333 11.4666 5.24251 11.2883C5.16261 11.1315 5.03513 11.0041 4.87833 10.9242C4.70007 10.8333 4.46671 10.8333 4 10.8333H3.33333C2.86662 10.8333 2.63327 10.8333 2.45501 10.9242C2.29821 11.0041 2.17072 11.1315 2.09083 11.2883C2 11.4666 2 11.7 2 12.1667ZM14.6595 2.99354C14.1621 1.95282 13.0155 1.40148 11.9004 1.93364C10.7852 2.46579 10.3102 3.72781 10.777 4.83568C11.0656 5.52038 11.8923 6.85 12.4817 7.76585C12.6995 8.10425 12.8084 8.27345 12.9675 8.37244C13.1039 8.45734 13.2747 8.5031 13.4353 8.49779C13.6226 8.4916 13.8015 8.39952 14.1593 8.21535C15.1277 7.71692 16.5085 6.97879 17.1007 6.5301C18.059 5.80409 18.2963 4.46964 17.5789 3.45519C16.8615 2.44075 15.6105 2.34093 14.6595 2.99354Z" stroke="#207E84" stroke-width="1.66667" stroke-linecap="round" stroke-linejoin="round"/>
</svg>
